<svg t="1639321888911" class="icon" viewBox="0 0 1337 1024" version="1.1" xmlns="http://www.w3.org/2000/svg" p-id="1245" width="200" height="200"><path d="M984.816327 0h-632.163266C158.197551 0 0 159.012571 0 354.460735v315.07853C0 864.987429 158.197551 1024 352.653061 1024h632.163266C1179.271837 1024 1337.469388 864.987429 1337.469388 669.539265V354.460735C1337.469388 159.012571 1179.271837 0 984.816327 0z m274.285714 669.539265c0 152.011755-123.047184 275.696327-274.285714 275.696327h-632.163266c-151.238531 0-274.285714-123.684571-274.285714-275.696327V354.460735c0-152.011755 123.047184-275.696327 274.285714-275.696327h632.163266c151.238531 0 274.285714 123.684571 274.285714 275.696327v315.07853z m-274.285714-512h-632.163266C244.621061 157.539265 156.734694 245.86449 156.734694 354.460735v315.07853c0 108.585796 87.886367 196.921469 195.918367 196.92147h632.163266c108.032 0 195.918367-88.335673 195.918367-196.92147V354.460735c0-108.585796-87.886367-196.921469-195.918367-196.92147zM391.836735 787.696327h-39.183674c-64.81502 0-117.55102-53.007673-117.55102-118.157062v-39.392653h156.734694v157.549715z m237.714285 0H470.204082V630.157061h159.346938v157.539266z m237.714286 0H707.918367V630.157061H867.265306v157.539266z m0-236.314123H235.102041V354.460735c0-65.149388 52.736-118.157061 117.55102-118.157062H867.265306V551.392653z m235.102041 118.157061c0 65.149388-52.736 118.157061-117.55102 118.157062H945.632653V551.382204h156.734694v118.157061z m0-196.921469h-156.734694V236.303673h39.183674c64.81502 0 117.55102 53.007673 117.55102 118.157062v118.157061z" fill="#20A0FF" p-id="1246"></path></svg>